<svg width="26" height="26" class="me-1" viewBox="0 0 26 26" fill="none" xmlns="http://www.w3.org/2000/svg"><path d="M23.8337 14.0833C23.8337 15.2858 22.8695 16.25 21.667 16.25H4.33366C3.75902 16.25 3.20792 16.0217 2.80159 15.6154C2.39527 15.2091 2.16699 14.658 2.16699 14.0833C2.16699 13.5087 2.39527 12.9576 2.80159 12.5513C3.20792 12.1449 3.75902 11.9167 4.33366 11.9167H14.0837L16.792 14.0833L19.5003 11.9167H21.667C22.2416 11.9167 22.7927 12.1449 23.1991 12.5513C23.6054 12.9576 23.8337 13.5087 23.8337 14.0833ZM13.0003 3.25C3.25033 3.25 3.25033 9.75 3.25033 9.75H22.7503C22.7503 9.75 22.7503 3.25 13.0003 3.25ZM3.25033 19.5C3.25033 21.2983 4.70199 22.75 6.50033 22.75H19.5003C21.2987 22.75 22.7503 21.2983 22.7503 19.5V18.4167H3.25033V19.5Z" fill="#F8F8F8"/></svg>