<svg width="22" height="22" class="me-1" viewBox="0 0 22 22" fill="none" xmlns="http://www.w3.org/2000/svg"><path d="M7.94488 5.63447C7.94488 4.82408 8.2668 4.04689 8.83983 3.47386C9.41286 2.90084 10.19 2.57891 11.0004 2.57891C11.8108 2.57891 12.588 2.90084 13.161 3.47386C13.7341 4.04689 14.056 4.82408 14.056 5.63447V7.33336H15.2782V5.63447C15.2782 5.0727 15.1676 4.51644 14.9526 3.99743C14.7376 3.47843 14.4225 3.00685 14.0253 2.60962C13.628 2.21239 13.1565 1.89729 12.6375 1.68232C12.1185 1.46734 11.5622 1.35669 11.0004 1.35669C10.4387 1.35669 9.8824 1.46734 9.3634 1.68232C8.84439 1.89729 8.37282 2.21239 7.97559 2.60962C7.57836 3.00685 7.26326 3.47843 7.04828 3.99743C6.8333 4.51644 6.72266 5.0727 6.72266 5.63447V7.33336H7.94488V5.63447Z" fill="white"/><path d="M15.2777 7.33337V9.22782C15.2777 9.3899 15.2133 9.54533 15.0987 9.65994C14.9841 9.77454 14.8286 9.83893 14.6666 9.83893C14.5045 9.83893 14.349 9.77454 14.2344 9.65994C14.1198 9.54533 14.0554 9.3899 14.0554 9.22782V7.33337H7.94434V9.22782C7.94434 9.3899 7.87995 9.54533 7.76535 9.65994C7.65074 9.77454 7.4953 9.83893 7.33322 9.83893C7.17115 9.83893 7.01571 9.77454 6.9011 9.65994C6.7865 9.54533 6.72211 9.3899 6.72211 9.22782V7.33337H2.44434V19.5556C2.44434 19.8797 2.57311 20.1906 2.80232 20.4198C3.03153 20.649 3.3424 20.7778 3.66656 20.7778H18.3332C18.6574 20.7778 18.9683 20.649 19.1975 20.4198C19.4267 20.1906 19.5554 19.8797 19.5554 19.5556V7.33337H15.2777Z" fill="white"/></svg>