<svg width="26" height="26" class="me-1" viewBox="0 0 26 26" fill="none" xmlns="http://www.w3.org/2000/svg"><path d="M24.5342 12.4608C23.4571 7.59135 21.8361 4.99236 19.4317 4.28244C18.9262 4.13418 18.4019 4.06012 17.8752 4.06256C17.179 4.06256 16.5727 4.23217 15.9313 4.41193C15.1584 4.62877 14.2804 4.87506 13.0002 4.87506C11.72 4.87506 10.8415 4.62928 10.0671 4.41244C9.42521 4.23217 8.81939 4.06256 8.12521 4.06256C7.58054 4.06067 7.03825 4.1345 6.51392 4.28193C4.12212 4.98881 2.5022 7.58678 1.40939 12.4577C0.234308 17.6994 0.812706 21.0088 3.03134 21.7766C3.33546 21.8838 3.65544 21.9391 3.9779 21.9401C5.49778 21.9401 6.71653 20.6741 7.54935 19.6377C8.49032 18.4646 9.59177 17.8695 13.0002 17.8695C16.0445 17.8695 17.3044 18.2823 18.3927 19.6377C19.0767 20.4898 19.7231 21.086 20.3681 21.4612C21.2258 21.9599 22.0829 22.0706 22.9152 21.7847C24.2264 21.3373 24.978 20.1546 25.1496 18.2686C25.2801 16.8224 25.079 14.9226 24.5342 12.4608ZM10.5627 12.1876H8.93771V13.8126C8.93771 14.028 8.8521 14.2347 8.69973 14.3871C8.54736 14.5395 8.34069 14.6251 8.12521 14.6251C7.90972 14.6251 7.70305 14.5395 7.55068 14.3871C7.39831 14.2347 7.31271 14.028 7.31271 13.8126V12.1876H5.68771C5.47222 12.1876 5.26556 12.102 5.11318 11.9496C4.96081 11.7972 4.87521 11.5905 4.87521 11.3751C4.87521 11.1596 4.96081 10.9529 5.11318 10.8005C5.26556 10.6482 5.47222 10.5626 5.68771 10.5626H7.31271V8.93756C7.31271 8.72207 7.39831 8.51541 7.55068 8.36303C7.70305 8.21066 7.90972 8.12506 8.12521 8.12506C8.34069 8.12506 8.54736 8.21066 8.69973 8.36303C8.8521 8.51541 8.93771 8.72207 8.93771 8.93756V10.5626H10.5627C10.7782 10.5626 10.9849 10.6482 11.1372 10.8005C11.2896 10.9529 11.3752 11.1596 11.3752 11.3751C11.3752 11.5905 11.2896 11.7972 11.1372 11.9496C10.9849 12.102 10.7782 12.1876 10.5627 12.1876ZM14.8283 12.3907C14.6275 12.3907 14.4311 12.3311 14.2641 12.2195C14.0971 12.1079 13.9669 11.9493 13.89 11.7637C13.8131 11.5781 13.793 11.3739 13.8322 11.1769C13.8714 10.9799 13.9681 10.7989 14.1102 10.6569C14.2522 10.5149 14.4332 10.4181 14.6302 10.3789C14.8272 10.3398 15.0314 10.3599 15.217 10.4367C15.4026 10.5136 15.5612 10.6438 15.6728 10.8108C15.7844 10.9778 15.844 11.1742 15.844 11.3751C15.844 11.6444 15.737 11.9027 15.5465 12.0932C15.356 12.2837 15.0977 12.3907 14.8283 12.3907ZM17.0627 14.6251C16.8617 14.6251 16.6653 14.5654 16.4982 14.4537C16.3311 14.342 16.2009 14.1832 16.1242 13.9975C16.0474 13.8118 16.0274 13.6074 16.0668 13.4104C16.1062 13.2133 16.2032 13.0323 16.3455 12.8904C16.4877 12.7484 16.669 12.6519 16.8661 12.613C17.0633 12.5741 17.2676 12.5946 17.4531 12.6718C17.6387 12.7491 17.7971 12.8797 17.9084 13.047C18.0197 13.2144 18.0788 13.411 18.0783 13.612C18.0777 13.8809 17.9704 14.1386 17.78 14.3285C17.5896 14.5184 17.3316 14.6251 17.0627 14.6251ZM17.0627 10.1563C16.8618 10.1563 16.6655 10.0967 16.4985 9.98515C16.3314 9.87355 16.2013 9.71493 16.1244 9.52935C16.0475 9.34377 16.0274 9.13956 16.0666 8.94254C16.1058 8.74553 16.2025 8.56457 16.3446 8.42253C16.4866 8.28049 16.6676 8.18376 16.8646 8.14457C17.0616 8.10539 17.2658 8.1255 17.4514 8.20237C17.6369 8.27924 17.7956 8.40941 17.9072 8.57643C18.0188 8.74345 18.0783 8.93981 18.0783 9.14068C18.0783 9.41004 17.9713 9.66837 17.7809 9.85884C17.5904 10.0493 17.3321 10.1563 17.0627 10.1563ZM19.2971 12.3907C19.0962 12.3907 18.8998 12.3311 18.7328 12.2195C18.5658 12.1079 18.4356 11.9493 18.3588 11.7637C18.2819 11.5781 18.2618 11.3739 18.301 11.1769C18.3402 10.9799 18.4369 10.7989 18.5789 10.6569C18.721 10.5149 18.9019 10.4181 19.0989 10.3789C19.296 10.3398 19.5002 10.3599 19.6857 10.4367C19.8713 10.5136 20.0299 10.6438 20.1415 10.8108C20.2531 10.9778 20.3127 11.1742 20.3127 11.3751C20.3127 11.6444 20.2057 11.9027 20.0152 12.0932C19.8248 12.2837 19.5664 12.3907 19.2971 12.3907Z" fill="white"/></svg>