<svg width="26" height="26" class="me-1" viewBox="0 0 26 26" fill="none" xmlns="http://www.w3.org/2000/svg"><path d="M13 1.44446C10.7504 1.44634 8.59295 2.33834 6.99888 3.92565C5.40481 5.51296 4.50363 7.66657 4.49219 9.91613C4.49219 13.2889 6.38441 16.1128 7.77108 18.1711L8.02385 18.5467C9.4035 20.5462 10.8835 22.4746 12.4583 24.3245L13.0072 24.9672L13.5561 24.3245C15.1306 22.4745 16.6107 20.5461 17.9905 18.5467L18.2433 18.1639C19.6227 16.1056 21.515 13.2889 21.515 9.91613C21.5035 7.66532 20.6013 5.51062 19.0057 3.9231C17.4101 2.33559 15.2508 1.44443 13 1.44446ZM13 13.7222C12.0629 13.7222 11.1469 13.4444 10.3678 12.9238C9.58867 12.4032 8.98142 11.6632 8.62283 10.7975C8.26424 9.93181 8.17041 8.9792 8.35322 8.06016C8.53603 7.14113 8.98726 6.29693 9.64985 5.63434C10.3124 4.97175 11.1566 4.52052 12.0757 4.33772C12.9947 4.15491 13.9473 4.24873 14.813 4.60732C15.6787 4.96591 16.4187 5.57317 16.9393 6.35229C17.4599 7.13141 17.7377 8.04741 17.7377 8.98446C17.7377 10.241 17.2386 11.4461 16.3501 12.3346C15.4616 13.2231 14.2565 13.7222 13 13.7222Z" fill="#F8F8F8"/><path d="M12.9996 11.6783C14.4873 11.6783 15.6934 10.4722 15.6934 8.98442C15.6934 7.49662 14.4873 6.29053 12.9996 6.29053C11.5118 6.29053 10.3057 7.49662 10.3057 8.98442C10.3057 10.4722 11.5118 11.6783 12.9996 11.6783Z" fill="#F8F8F8"/></svg>