<svg width="22" height="22" class="me-1" viewBox="0 0 22 22" fill="none" xmlns="http://www.w3.org/2000/svg"><path d="M4.89978 11.7948H6.6998V18.0993C6.6998 18.3382 6.79462 18.5673 6.96341 18.7362C7.13219 18.9051 7.36112 19 7.59981 19H18.4C18.6387 19 18.8676 18.9051 19.0364 18.7362C19.2052 18.5673 19.3 18.3382 19.3 18.0993V11.7948H21.1C21.2739 11.7949 21.4442 11.7445 21.59 11.6497C21.7359 11.5549 21.8511 11.4198 21.9217 11.2607C21.9928 11.1017 22.0162 10.9255 21.989 10.7534C21.9618 10.5814 21.8853 10.4209 21.7687 10.2916L13.6686 1.28506C13.3275 0.904981 12.6723 0.904981 12.3312 1.28506L4.23107 10.2916C4.11469 10.421 4.03827 10.5813 4.01107 10.7533C3.98387 10.9252 4.00705 11.1014 4.07779 11.2604C4.14854 11.4195 4.26383 11.5546 4.40972 11.6494C4.5556 11.7442 4.72582 11.7947 4.89978 11.7948ZM10.254 11.5102C10.2819 11.5957 10.9857 13.5961 12.9999 13.5961C15.042 13.5961 15.7377 11.5363 15.7449 11.5147L17.455 12.074C17.4108 12.21 16.3326 15.3974 12.9999 15.3974C9.66714 15.3974 8.58893 12.21 8.54483 12.0749L10.254 11.5102Z" fill="white"/></svg>