<svg width="22" height="22" class="me-1" viewBox="0 0 22 22" fill="none" xmlns="http://www.w3.org/2000/svg"><path d="M10.083 19.25C10.083 18.8853 9.93814 18.5356 9.68028 18.2777C9.42242 18.0199 9.07268 17.875 8.70801 17.875C8.34334 17.875 7.9936 18.0199 7.73574 18.2777C7.47787 18.5356 7.33301 18.8853 7.33301 19.25H2.74967C2.50656 19.25 2.2734 19.1534 2.10149 18.9815C1.92958 18.8096 1.83301 18.5764 1.83301 18.3333V3.66667C1.83301 3.42355 1.92958 3.19039 2.10149 3.01849C2.2734 2.84658 2.50656 2.75 2.74967 2.75H7.33301C7.33301 3.11467 7.47787 3.46441 7.73574 3.72227C7.9936 3.98013 8.34334 4.125 8.70801 4.125C9.07268 4.125 9.42242 3.98013 9.68028 3.72227C9.93814 3.46441 10.083 3.11467 10.083 2.75H19.2497C19.4928 2.75 19.726 2.84658 19.8979 3.01849C20.0698 3.19039 20.1663 3.42355 20.1663 3.66667V8.70833C19.5586 8.70833 18.9757 8.94978 18.5459 9.37955C18.1161 9.80932 17.8747 10.3922 17.8747 11C17.8747 11.6078 18.1161 12.1907 18.5459 12.6205C18.9757 13.0502 19.5586 13.2917 20.1663 13.2917V18.3333C20.1663 18.5764 20.0698 18.8096 19.8979 18.9815C19.726 19.1534 19.4928 19.25 19.2497 19.25H10.083ZM8.70801 9.625C9.07268 9.625 9.42242 9.48013 9.68028 9.22227C9.93814 8.96441 10.083 8.61467 10.083 8.25C10.083 7.88533 9.93814 7.53559 9.68028 7.27773C9.42242 7.01987 9.07268 6.875 8.70801 6.875C8.34334 6.875 7.9936 7.01987 7.73574 7.27773C7.47787 7.53559 7.33301 7.88533 7.33301 8.25C7.33301 8.61467 7.47787 8.96441 7.73574 9.22227C7.9936 9.48013 8.34334 9.625 8.70801 9.625ZM8.70801 15.125C9.07268 15.125 9.42242 14.9801 9.68028 14.7223C9.93814 14.4644 10.083 14.1147 10.083 13.75C10.083 13.3853 9.93814 13.0356 9.68028 12.7777C9.42242 12.5199 9.07268 12.375 8.70801 12.375C8.34334 12.375 7.9936 12.5199 7.73574 12.7777C7.47787 13.0356 7.33301 13.3853 7.33301 13.75C7.33301 14.1147 7.47787 14.4644 7.73574 14.7223C7.9936 14.9801 8.34334 15.125 8.70801 15.125Z" fill="white"/></svg>