<svg class="me-0 me-md-2" width="30" height="30" viewBox="0 0 30 30" fill="none" xmlns="http://www.w3.org/2000/svg">
            <path d="M5.625 10.69C5.625 13.1838 7.50625 15.065 10 15.065C12.4938 15.065 14.375 13.1838 14.375 10.69C14.375 8.19625 12.4938 6.315 10 6.315C7.50625 6.315 5.625 8.19625 5.625 10.69ZM23.75 10H21.25V13.75H17.5V16.25H21.25V20H23.75V16.25H27.5V13.75H23.75V10ZM5 23.75H17.5V22.5C17.5 19.0538 14.6963 16.25 11.25 16.25H8.75C5.30375 16.25 2.5 19.0538 2.5 22.5V23.75H5Z" fill="white"/>
        </svg>